<svg width="48" height="49" viewBox="0 0 48 49" fill="none" xmlns="http://www.w3.org/2000/svg">
<g clip-path="url(#clip0_56_311)">
<path d="M32.9766 19.7261C32.4297 20.0229 31.9062 20.3433 31.4062 20.687C30.9062 21.0308 30.4375 21.4214 30 21.8589V21.4839L24 18.062L18 21.4839V28.2808L24 31.7026L26.2969 30.3901C26.2969 30.4683 26.2891 30.5464 26.2734 30.6245C26.2578 30.7026 26.25 30.7886 26.25 30.8823C26.25 31.3511 26.2812 31.8198 26.3438 32.2886C26.4062 32.7573 26.5 33.2183 26.625 33.6714L24 35.1714L15 30.0151V19.7495L24 14.5933L32.9766 19.7261ZM6 14.6167V35.1479L19.5703 42.8823C19.1797 43.2886 18.8281 43.6558 18.5156 43.9839C18.2031 44.312 17.9297 44.7417 17.6953 45.2729L3 36.8823V12.8823L24 0.882324L45 12.8823V19.7026C44.0469 19.1714 43.0469 18.7808 42 18.5308V14.6167L24 4.32764L6 14.6167ZM39 21.8823C40.2344 21.8823 41.3984 22.1167 42.4922 22.5854C43.5859 23.0542 44.5391 23.6948 45.3516 24.5073C46.1641 25.3198 46.8125 26.2808 47.2969 27.3901C47.7812 28.4995 48.0156 29.6636 48 30.8823C48 32.1323 47.7656 33.2964 47.2969 34.3745C46.8281 35.4526 46.1875 36.4058 45.375 37.2339C44.5625 38.062 43.6016 38.7104 42.4922 39.1792C41.3828 39.6479 40.2188 39.8823 39 39.8823C38.0625 39.8823 37.1484 39.7417 36.2578 39.4604C35.3672 39.1792 34.5469 38.7651 33.7969 38.2183L23.5547 48.437C23.2578 48.7339 22.9062 48.8823 22.5 48.8823C22.0938 48.8823 21.7422 48.7339 21.4453 48.437C21.1484 48.1401 21 47.7886 21 47.3823C21 46.9761 21.1484 46.6245 21.4453 46.3276L31.6641 36.0854C31.1172 35.3354 30.7031 34.5151 30.4219 33.6245C30.1406 32.7339 30 31.8198 30 30.8823C30 29.6479 30.2344 28.4839 30.7031 27.3901C31.1719 26.2964 31.8125 25.3433 32.625 24.5308C33.4375 23.7183 34.3906 23.0698 35.4844 22.5854C36.5781 22.1011 37.75 21.8667 39 21.8823ZM39 36.8823C39.8281 36.8823 40.6016 36.7261 41.3203 36.4136C42.0391 36.1011 42.6797 35.6714 43.2422 35.1245C43.8047 34.5776 44.2344 33.9448 44.5312 33.2261C44.8281 32.5073 44.9844 31.7261 45 30.8823C45 30.0542 44.8438 29.2808 44.5312 28.562C44.2188 27.8433 43.7891 27.2026 43.2422 26.6401C42.6953 26.0776 42.0625 25.6479 41.3438 25.3511C40.625 25.0542 39.8438 24.8979 39 24.8823C38.1719 24.8823 37.3984 25.0386 36.6797 25.3511C35.9609 25.6636 35.3203 26.0933 34.7578 26.6401C34.1953 27.187 33.7656 27.8198 33.4688 28.5386C33.1719 29.2573 33.0156 30.0386 33 30.8823C33 31.7104 33.1562 32.4839 33.4688 33.2026C33.7812 33.9214 34.2109 34.562 34.7578 35.1245C35.3047 35.687 35.9375 36.1167 36.6562 36.4136C37.375 36.7104 38.1562 36.8667 39 36.8823Z" fill="#AA8FDC"/>
</g>
<defs>
<clipPath id="clip0_56_311">
<rect width="48" height="48" fill="white" transform="translate(0 0.882324)"/>
</clipPath>
</defs>
</svg>
