<svg width="48" height="49" viewBox="0 0 48 49" fill="none" xmlns="http://www.w3.org/2000/svg">
<g clip-path="url(#clip0_56_313)">
<path d="M16 22.8823C18.6522 22.8823 21.1957 21.8288 23.0711 19.9534C24.9464 18.078 26 15.5345 26 12.8823C26 10.2302 24.9464 7.68662 23.0711 5.81126C21.1957 3.93589 18.6522 2.88232 16 2.88232C13.3478 2.88232 10.8043 3.93589 8.92893 5.81126C7.05357 7.68662 6 10.2302 6 12.8823C6 15.5345 7.05357 18.078 8.92893 19.9534C10.8043 21.8288 13.3478 22.8823 16 22.8823ZM16 22.8823C20.026 22.8823 23.544 24.4023 26.046 26.9283C27.5294 28.4323 28.6391 30.2634 29.286 32.2743M16 22.8823C8 22.8823 2 28.8823 2 36.8823V46.8823H22M24 38.5303L32.38 44.8823L46 26.8823" stroke="#AA8FDC" stroke-width="4"/>
</g>
<defs>
<clipPath id="clip0_56_313">
<rect width="48" height="48" fill="white" transform="translate(0 0.882324)"/>
</clipPath>
</defs>
</svg>
