<svg width="48" height="49" viewBox="0 0 48 49" fill="none" xmlns="http://www.w3.org/2000/svg">
<path d="M11.192 22.1403L6.808 19.6363C6.56533 19.503 6.37 19.3097 6.222 19.0563C6.074 18.8003 6 18.525 6 18.2303V13.2243C6 12.931 6.074 12.657 6.222 12.4023C6.37 12.1477 6.56533 11.9543 6.808 11.8223L11.192 9.31633C11.432 9.17633 11.6993 9.10633 11.994 9.10633C12.2873 9.10633 12.5587 9.17633 12.808 9.31633L17.192 11.8223C17.4347 11.9557 17.63 12.1497 17.778 12.4043C17.926 12.659 18 12.9323 18 13.2243V18.2323C18 18.5257 17.926 18.7997 17.778 19.0543C17.63 19.309 17.4347 19.503 17.192 19.6363L12.808 22.1403C12.568 22.2817 12.3007 22.3523 12.006 22.3523C11.7127 22.3523 11.4413 22.2817 11.192 22.1403ZM12 20.2823L16 18.0063V13.4523L12 11.1743L8 13.4523V18.0063L12 20.2823ZM32.54 22.7403V20.4363L36.384 22.6943C36.896 22.9877 37.2933 23.381 37.576 23.8743C37.8587 24.3677 38 24.8937 38 25.4523V34.6203C38 35.1803 37.8587 35.707 37.576 36.2003C37.2933 36.6937 36.896 37.0863 36.384 37.3783L28.616 41.9143C28.1027 42.2037 27.562 42.3483 26.994 42.3483C26.426 42.3483 25.8893 42.2037 25.384 41.9143L17.616 37.3783C17.104 37.085 16.7067 36.6917 16.424 36.1983C16.1413 35.7077 16 35.1823 16 34.6223V25.4543C16 24.8943 16.1413 24.3677 16.424 23.8743C16.7067 23.381 17.104 22.9877 17.616 22.6943L21.462 20.4383V22.7423L18 24.7603V35.3183L27 40.5383L36 35.3183V24.7583L32.54 22.7403ZM28 16.8823V27.8823C28 28.1663 27.904 28.4037 27.712 28.5943C27.52 28.785 27.282 28.881 26.998 28.8823C26.714 28.8837 26.4767 28.7877 26.286 28.5943C26.0953 28.401 26 28.1637 26 27.8823V8.49833C26 8.041 26.1547 7.657 26.464 7.34633C26.7733 7.03567 27.1573 6.881 27.616 6.88233H38.982C39.6153 6.88233 40.09 7.16833 40.406 7.74033C40.7233 8.31233 40.6993 8.86767 40.334 9.40633L39.288 10.9743C39.1067 11.2477 39.016 11.5477 39.016 11.8743C39.016 12.201 39.1067 12.5063 39.288 12.7903L40.334 14.3603C40.698 14.8977 40.722 15.4523 40.406 16.0243C40.09 16.5963 39.6153 16.8823 38.982 16.8823H28Z" fill="#AA8FDC"/>
</svg>
